# xmcd CD database file
#
# Track frame offsets:
#	150
#	25247
#	47525
#
# Disc length: 965 seconds
#
# Revision: 1
# Processed by: cddbd v1.5.2PL0 Copyright (c) Steve Scherf et al.
# Submitted via: CDex 1.70beta3
#
DISCID=1a03c303
DTITLE=下川みくに - 2000EXPRESS
DYEAR=1999
DGENRE=JPop
TTITLE0=2000EXPRESS
TTITLE1=たぶんオーライ
TTITLE2=2000EXPRESS (オリジナルカラオケ)
EXTD=YEAR: 1999
EXTT0=
EXTT1=
EXTT2=
PLAYORDER=
